<?xml version="1.0" standalone="no"?><svg xmlns="http://www.w3.org/2000/svg" viewBox="0 0 1440 320"><path fill="#CB8C83" fill-opacity="1" d="M0,64L16,85.3C32,107,64,149,96,160C128,171,160,149,192,144C224,139,256,149,288,128C320,107,352,53,384,53.3C416,53,448,107,480,112C512,117,544,75,576,90.7C608,107,640,181,672,218.7C704,256,736,256,768,245.3C800,235,832,213,864,213.3C896,213,928,235,960,208C992,181,1024,107,1056,112C1088,117,1120,203,1152,213.3C1184,224,1216,160,1248,165.3C1280,171,1312,245,1344,256C1376,267,1408,213,1424,186.7L1440,160L1440,320L1424,320C1408,320,1376,320,1344,320C1312,320,1280,320,1248,320C1216,320,1184,320,1152,320C1120,320,1088,320,1056,320C1024,320,992,320,960,320C928,320,896,320,864,320C832,320,800,320,768,320C736,320,704,320,672,320C640,320,608,320,576,320C544,320,512,320,480,320C448,320,416,320,384,320C352,320,320,320,288,320C256,320,224,320,192,320C160,320,128,320,96,320C64,320,32,320,16,320L0,320Z"></path></svg>