<?xml version="1.0" encoding="UTF-8"?>
<svg version="1.1" xmlns="http://www.w3.org/2000/svg" width="40" height="34">
<path d="M0 0 C1.95192219 0.51754401 1.95192219 0.51754401 3.8125 -0.6875 C6.60359422 -2.0407578 7.90204742 -1.48229224 10.875 -0.6875 C12.67108112 0.11221495 14.44316512 0.96794586 16.1875 1.875 C17.07050781 2.33003906 17.95351563 2.78507813 18.86328125 3.25390625 C19.52714844 3.60324219 20.19101562 3.95257813 20.875 4.3125 C19.70227546 6.88509842 19.07204332 8.16761521 16.75 9.875 C16.13125 10.349375 15.5125 10.82375 14.875 11.3125 C14.875 12.3025 14.875 13.2925 14.875 14.3125 C12.895 15.3025 12.895 15.3025 10.875 16.3125 C10.875 17.9625 10.875 19.6125 10.875 21.3125 C12.195 20.9825 13.515 20.6525 14.875 20.3125 C15.2265625 22.5703125 15.2265625 22.5703125 14.875 25.3125 C12.4609375 27.3671875 12.4609375 27.3671875 9.25 29.1875 C7.68378906 30.11175781 7.68378906 30.11175781 6.0859375 31.0546875 C2.44151993 32.48230606 0.59723414 32.37131734 -3.125 31.3125 C-4.125 30.3125 -4.125 30.3125 -4.1875 27.75 C-4.166875 26.945625 -4.14625 26.14125 -4.125 25.3125 C-2.990625 25.498125 -1.85625 25.68375 -0.6875 25.875 C0.488125 26.019375 1.66375 26.16375 2.875 26.3125 C4.17133621 25.24604885 4.17133621 25.24604885 3.9375 22.75 C3.916875 21.945625 3.89625 21.14125 3.875 20.3125 C3.2975 20.51875 2.72 20.725 2.125 20.9375 C-0.64467567 21.39911261 -1.77061267 20.74194945 -4.125 19.3125 C-4.125 20.6325 -4.125 21.9525 -4.125 23.3125 C-5.445 22.9825 -6.765 22.6525 -8.125 22.3125 C-8.125 23.9625 -8.125 25.6125 -8.125 27.3125 C-10.6 26.3225 -10.6 26.3225 -13.125 25.3125 C-13.13917969 24.27609375 -13.15335938 23.2396875 -13.16796875 22.171875 C-13.21488093 20.80203943 -13.26312827 19.43224913 -13.3125 18.0625 C-13.31830078 17.38058594 -13.32410156 16.69867187 -13.33007812 15.99609375 C-13.49958498 12.11627024 -13.77593546 10.63537134 -16.67578125 7.953125 C-17.48402344 7.41171875 -18.29226562 6.8703125 -19.125 6.3125 C-19.125 5.6525 -19.125 4.9925 -19.125 4.3125 C-17.42897484 3.27134577 -15.71751063 2.25531622 -14 1.25 C-13.04867188 0.68152344 -12.09734375 0.11304687 -11.1171875 -0.47265625 C-6.96081579 -2.16016487 -4.14582187 -1.34129531 0 0 Z M-7.125 11.3125 C-3.13765302 15.02428424 -3.13765302 15.02428424 1.875 16.3125 C4.36232954 15.15497651 6.54758405 13.78951397 8.875 12.3125 C6.71011309 9.73128868 5.21017657 8.42908315 2 7.3125 C-2.09713684 7.3125 -3.95997946 8.82569815 -7.125 11.3125 Z " fill="#A90A0A" transform="translate(19.125,1.6875)"/>
<path d="M0 0 C0.66 0 1.32 0 2 0 C2 1.32 2 2.64 2 4 C1.34 4 0.68 4 0 4 C0 2.68 0 1.36 0 0 Z " fill="#A90A0A" transform="translate(38,15)"/>
</svg>
